<svg width="20" height="25" viewBox="0 0 20 25" fill="none" xmlns="http://www.w3.org/2000/svg">
<path d="M16.7045 13.2631C16.7166 12.3432 16.9669 11.4412 17.4321 10.6411C17.8972 9.84105 18.5621 9.16882 19.3648 8.68699C18.8548 7.97594 18.1821 7.39078 17.4 6.97797C16.6178 6.56517 15.7479 6.3361 14.8592 6.30895C12.9635 6.11468 11.1258 7.41641 10.1598 7.41641C9.17506 7.41641 7.68776 6.32824 6.08616 6.36041C5.05021 6.39308 4.04059 6.68719 3.15568 7.21407C2.27077 7.74096 1.54075 8.48265 1.03674 9.36688C-1.14648 13.0573 0.482005 18.4809 2.57338 21.464C3.61975 22.9247 4.84264 24.5563 6.44279 24.4985C8.00863 24.4351 8.59344 23.5237 10.4835 23.5237C12.3561 23.5237 12.9048 24.4985 14.5374 24.4617C16.2176 24.4351 17.2762 22.9945 18.2859 21.5199C19.0377 20.4791 19.6162 19.3288 20 18.1116C19.0238 17.7085 18.1908 17.0338 17.6048 16.1716C17.0187 15.3094 16.7056 14.2979 16.7045 13.2631Z" fill="white"/>
<path d="M13.621 4.34713C14.5372 3.27343 14.9885 1.89335 14.8792 0.5C13.4796 0.643519 12.1867 1.2966 11.2582 2.32911C10.8043 2.83351 10.4566 3.42033 10.235 4.05601C10.0135 4.69168 9.92244 5.36375 9.9671 6.0338C10.6672 6.04084 11.3597 5.8927 11.9927 5.60054C12.6256 5.30838 13.1824 4.87982 13.621 4.34713Z" fill="white"/>
</svg>
