<svg width="21" height="25" viewBox="0 0 21 25" fill="none" xmlns="http://www.w3.org/2000/svg">
<path d="M9.80506 11.9617L0.0898438 22.5059C0.0907562 22.5078 0.0907561 22.5106 0.0916686 22.5125C0.390051 23.6574 1.41203 24.5 2.62564 24.5C3.11108 24.5 3.56641 24.3656 3.95695 24.1305L3.98798 24.1118L14.9232 17.6593L9.80506 11.9617Z" fill="#EA4335"/>
<path d="M19.6332 10.1662L19.624 10.1597L14.9029 7.36123L9.58398 12.2013L14.922 17.6582L19.6177 14.8878C20.4407 14.4324 21.0001 13.545 21.0001 12.5223C21.0001 11.5052 20.4489 10.6225 19.6332 10.1662Z" fill="#FBBC04"/>
<path d="M0.0894234 2.49337C0.0310244 2.71359 0 2.945 0 3.18388V21.8164C0 22.0553 0.0310245 22.2867 0.0903359 22.506L10.1386 12.2314L0.0894234 2.49337Z" fill="#4285F4"/>
<path d="M9.87666 12.4999L14.9044 7.35932L3.98201 0.883476C3.58508 0.639932 3.12154 0.499965 2.62606 0.499965C1.41246 0.499965 0.38865 1.34444 0.0902675 2.49031C0.0902675 2.49124 0.0893555 2.49217 0.0893555 2.49311L9.87666 12.4999Z" fill="#34A853"/>
</svg>
