<svg width="1512" height="365" viewBox="0 0 1512 365" fill="none" xmlns="http://www.w3.org/2000/svg">
<g opacity="0.05">
<path d="M883.916 -873.464L765.66 -941.731L803.008 -1006.41L891.282 -955.451L911.881 -991.126L738.996 -1090.93L785.78 -1171.95L956.333 -1073.49L976.74 -1108.83L762.212 -1232.68L674.423 -1080.64L759.037 -1031.79L721.69 -967.114L604.432 -1034.8L583.449 -998.465L862.933 -837.123L883.916 -873.464ZM959.192 -1062.81L788.638 -1161.26L749.683 -1093.8L922.569 -993.995L894.141 -944.763L805.866 -995.722L776.347 -944.6L894.604 -876.332L865.792 -826.435L572.762 -995.596L601.574 -1045.49L718.831 -977.803L748.35 -1028.93L663.736 -1077.77L759.354 -1243.37L987.427 -1111.7L959.192 -1062.81Z" fill="#EA8934"/>
<path d="M544.661 -1028.67L375.532 -1126.3L411.092 -1187.89L366.812 -1213.45L310.684 -1116.25L524.094 -993.05L544.661 -1028.67ZM691.406 -1301.26L647.126 -1326.82L517.764 -1102.78L562.044 -1077.22L691.406 -1301.26ZM386.209 -1129.17L555.338 -1031.53L526.955 -982.374L300.007 -1113.39L363.472 -1223.3C355.481 -1224.61 347.287 -1226.2 338.891 -1228.06L332.283 -1229.53L336.819 -1289.55L345.662 -1287.54L350.456 -1286.48C374.225 -1281.35 394.874 -1278.83 412.471 -1278.8C423.242 -1278.92 433.151 -1279.89 442.227 -1281.67L366.804 -1317.91L386.355 -1371.09L498.932 -1310.76C502.353 -1314.06 505.635 -1317.58 508.779 -1321.32L412.282 -1377.03L440.666 -1426.18L598.032 -1335.34L594.124 -1328.57C576.919 -1298.77 556.634 -1274.67 533.186 -1256.48L533.184 -1256.48C509.749 -1237.99 482.04 -1226.3 450.258 -1221.29C425.422 -1217.38 397.351 -1217.96 366.139 -1222.86L421.769 -1190.75L386.209 -1129.17ZM422.96 -1379.89L520.517 -1323.57C515.069 -1316.25 509.158 -1309.6 502.776 -1303.63C501.911 -1302.82 501.03 -1302.03 500.141 -1301.25L390.589 -1359.96L376.59 -1321.88L464.191 -1279.79C464.174 -1279.78 464.159 -1279.77 464.143 -1279.77C449.336 -1274.11 432.108 -1271.19 412.462 -1270.99C392.943 -1271.01 370.099 -1273.99 343.93 -1279.92L340.587 -1235.69C380.983 -1226.71 416.173 -1224.34 446.155 -1228.58L449.038 -1229.01C479.641 -1233.83 506.092 -1245.05 528.391 -1262.65C550.912 -1280.13 570.568 -1303.4 587.354 -1332.48L443.527 -1415.51L422.96 -1379.89ZM564.905 -1066.55L507.087 -1099.92L644.265 -1337.5L702.083 -1304.12L564.905 -1066.55Z" fill="#EA8934"/>
<path d="M1481.2 -528.66L1362.95 -596.927L1400.29 -661.607L1488.57 -610.648L1509.17 -646.323L1336.28 -746.126L1383.07 -827.148L1553.62 -728.69L1574.03 -764.031L1359.5 -887.874L1271.71 -735.837L1356.32 -686.991L1318.98 -622.311L1201.72 -690.001L1180.74 -653.661L1460.22 -492.32L1481.2 -528.66ZM1556.48 -718.001L1385.92 -816.459L1346.97 -748.995L1519.86 -649.192L1491.43 -599.959L1403.15 -650.919L1373.63 -599.796L1491.89 -531.529L1463.08 -481.631L1170.05 -650.792L1198.86 -700.69L1316.12 -632.999L1345.64 -684.122L1261.02 -732.968L1356.64 -898.562L1584.71 -766.9L1556.48 -718.001Z" fill="#EA8934"/>
<path d="M1141.95 -683.866L972.819 -781.501L1008.38 -843.086L964.098 -868.649L907.971 -771.445L1121.38 -648.247L1141.95 -683.866ZM1288.69 -956.453L1244.41 -982.016L1115.05 -757.981L1159.33 -732.418L1288.69 -956.453ZM983.496 -784.362L1152.63 -686.726L1124.24 -637.571L897.294 -768.584L960.758 -878.495C952.768 -879.806 944.573 -881.392 936.177 -883.26L929.57 -884.73L934.106 -944.744L942.949 -942.741L947.742 -941.679C971.511 -936.544 992.16 -934.022 1009.76 -934.001C1020.53 -934.114 1030.44 -935.082 1039.51 -936.863L964.091 -973.106L983.642 -1026.29L1096.22 -965.958C1099.64 -969.261 1102.92 -972.779 1106.07 -976.516L1009.57 -1032.22L1037.95 -1081.38L1195.32 -990.533L1191.41 -983.765C1174.21 -953.97 1153.92 -929.871 1130.47 -911.674L1130.47 -911.679C1107.04 -893.191 1079.33 -881.494 1047.54 -876.486C1022.71 -872.573 994.638 -873.156 963.425 -878.061L1019.06 -845.947L983.496 -784.362ZM1020.25 -1035.08L1117.8 -978.764C1112.36 -971.446 1106.44 -964.797 1100.06 -958.822C1099.2 -958.013 1098.32 -957.224 1097.43 -956.443L987.875 -1015.15L973.877 -977.072L1061.48 -934.984C1061.46 -934.978 1061.45 -934.969 1061.43 -934.963C1046.62 -929.308 1029.39 -926.383 1009.75 -926.184C990.23 -926.208 967.385 -929.184 941.217 -935.118L937.873 -890.891C978.269 -881.904 1013.46 -879.531 1043.44 -883.776L1046.33 -884.205C1076.93 -889.027 1103.38 -900.243 1125.68 -917.848C1148.2 -935.325 1167.85 -958.6 1184.64 -987.672L1040.81 -1070.7L1020.25 -1035.08ZM1162.19 -721.742L1104.37 -755.12L1241.55 -992.692L1299.37 -959.314L1162.19 -721.742Z" fill="#EA8934"/>
<path d="M2078.49 -183.856L1960.23 -252.124L1997.58 -316.804L2085.86 -265.844L2106.46 -301.519L1933.57 -401.323L1980.35 -482.344L2150.91 -383.886L2171.31 -419.227L1956.79 -543.07L1869 -391.033L1953.61 -342.187L1916.26 -277.507L1799.01 -345.198L1778.02 -308.858L2057.51 -147.516L2078.49 -183.856ZM2153.77 -373.198L1983.21 -471.656L1944.26 -404.192L2117.14 -304.388L2088.71 -255.156L2000.44 -306.115L1970.92 -254.993L2089.18 -186.725L2060.36 -136.827L1767.34 -305.989L1796.15 -355.886L1913.4 -288.196L1942.92 -339.318L1858.31 -388.164L1953.93 -553.759L2182 -422.096L2153.77 -373.198Z" fill="#EA8934"/>
<path d="M1739.23 -339.062L1570.11 -436.698L1605.67 -498.283L1561.39 -523.845L1505.26 -426.641L1718.67 -303.443L1739.23 -339.062ZM1885.98 -611.65L1841.7 -637.212L1712.34 -413.177L1756.62 -387.615L1885.98 -611.65ZM1580.78 -439.558L1749.91 -341.923L1721.53 -292.767L1494.58 -423.78L1558.04 -533.691C1550.05 -535.002 1541.86 -536.588 1533.46 -538.456L1526.86 -539.926L1531.39 -599.94L1540.24 -597.938L1545.03 -596.875C1568.8 -591.74 1589.45 -589.218 1607.04 -589.197C1617.82 -589.31 1627.72 -590.279 1636.8 -592.059L1561.38 -628.303L1580.93 -681.486L1693.51 -621.155C1696.93 -624.457 1700.21 -627.975 1703.35 -631.712L1606.86 -687.418L1635.24 -736.574L1792.61 -645.729L1788.7 -638.961C1771.49 -609.166 1751.21 -585.067 1727.76 -566.87L1727.76 -566.875C1704.32 -548.388 1676.61 -536.691 1644.83 -531.683C1620 -527.769 1591.92 -528.352 1560.71 -533.258L1616.34 -501.143L1580.78 -439.558ZM1617.53 -690.279L1715.09 -633.961C1709.64 -626.643 1703.73 -619.993 1697.35 -614.019C1696.48 -613.21 1695.6 -612.42 1694.71 -611.64L1585.16 -670.348L1571.16 -632.268L1658.76 -590.18C1658.75 -590.174 1658.73 -590.165 1658.72 -590.159C1643.91 -584.504 1626.68 -581.579 1607.03 -581.381C1587.52 -581.404 1564.67 -584.38 1538.5 -590.314L1535.16 -546.087C1575.56 -537.1 1610.75 -534.728 1640.73 -538.973L1643.61 -539.401C1674.21 -544.223 1700.67 -555.439 1722.96 -573.044C1745.49 -590.521 1765.14 -613.796 1781.93 -642.869L1638.1 -725.898L1617.53 -690.279ZM1759.48 -376.939L1701.66 -410.316L1838.84 -647.888L1896.66 -614.51L1759.48 -376.939Z" fill="#EA8934"/>
<path d="M939.808 -280.652L821.552 -348.919L858.899 -413.6L947.174 -362.64L967.773 -398.315L794.888 -498.119L841.671 -579.14L1012.22 -480.682L1032.63 -516.023L818.104 -639.866L730.315 -487.829L814.929 -438.983L777.581 -374.303L660.324 -441.994L639.34 -405.653L918.825 -244.312L939.808 -280.652ZM1015.08 -469.994L844.53 -568.451L805.575 -500.988L978.46 -401.184L950.032 -351.951L861.758 -402.911L832.239 -351.788L950.495 -283.521L921.683 -233.623L628.653 -402.784L657.465 -452.682L774.723 -384.991L804.242 -436.114L719.628 -484.96L815.245 -650.555L1043.32 -518.892L1015.08 -469.994Z" fill="#EA8934"/>
<path d="M600.553 -435.858L431.423 -533.494L466.984 -595.078L422.703 -620.641L366.576 -523.437L579.986 -400.239L600.553 -435.858ZM747.298 -708.446L703.017 -734.008L573.656 -509.973L617.936 -484.41L747.298 -708.446ZM442.101 -536.354L611.23 -438.719L582.847 -389.563L355.899 -520.576L419.363 -630.487C411.373 -631.798 403.178 -633.384 394.782 -635.252L388.175 -636.722L392.71 -696.736L401.553 -694.734L406.347 -693.671C430.116 -688.536 450.765 -686.014 468.362 -685.993C479.134 -686.106 489.043 -687.075 498.119 -688.855L422.696 -725.098L442.247 -778.282L554.824 -717.951C558.245 -721.253 561.527 -724.771 564.671 -728.508L468.174 -784.214L496.557 -833.37L653.923 -742.525L650.015 -735.757C632.811 -705.962 612.526 -681.863 589.077 -663.666L589.076 -663.671C565.641 -645.183 537.932 -633.487 506.149 -628.478C481.314 -624.565 453.243 -625.148 422.03 -630.053L477.661 -597.939L442.101 -536.354ZM478.851 -787.075L576.409 -730.756C570.96 -723.439 565.049 -716.789 558.667 -710.815C557.803 -710.005 556.921 -709.216 556.033 -708.436L446.48 -767.144L432.482 -729.064L520.082 -686.976C520.066 -686.97 520.051 -686.961 520.035 -686.955C505.228 -681.3 488 -678.375 468.353 -678.177C448.835 -678.2 425.99 -681.176 399.822 -687.11L396.478 -642.883C436.874 -633.896 472.064 -631.524 502.047 -635.768L504.93 -636.197C535.533 -641.019 561.983 -652.235 584.282 -669.84C606.803 -687.317 626.459 -710.592 643.246 -739.664L499.418 -822.694L478.851 -787.075ZM620.797 -473.734L562.978 -507.112L700.156 -744.684L757.975 -711.306L620.797 -473.734Z" fill="#EA8934"/>
<path d="M1537.09 64.1516L1418.84 -4.11572L1456.19 -68.7959L1544.46 -17.8364L1565.06 -53.5114L1392.17 -153.315L1438.96 -234.337L1609.51 -135.879L1629.92 -171.219L1415.39 -295.062L1327.6 -143.025L1412.22 -94.1792L1374.87 -29.4991L1257.61 -97.1899L1236.63 -60.8497L1516.11 100.492L1537.09 64.1516ZM1612.37 -125.19L1441.82 -223.648L1402.86 -156.184L1575.75 -56.3802L1547.32 -7.14771L1459.04 -58.1072L1429.53 -6.98474L1547.78 61.2827L1518.97 111.18L1225.94 -57.9808L1254.75 -107.879L1372.01 -40.1877L1401.53 -91.3103L1316.91 -140.156L1412.53 -305.751L1640.6 -174.088L1612.37 -125.19Z" fill="#EA8934"/>
<path d="M1197.84 -91.0544L1028.71 -188.69L1064.27 -250.275L1019.99 -275.837L963.863 -178.633L1177.27 -55.4353L1197.84 -91.0544ZM1344.58 -363.642L1300.3 -389.204L1170.94 -165.169L1215.22 -139.607L1344.58 -363.642ZM1039.39 -191.55L1208.52 -93.9148L1180.13 -44.7594L953.185 -175.773L1016.65 -285.683C1008.66 -286.995 1000.46 -288.581 992.069 -290.448L985.461 -291.919L989.997 -351.933L998.84 -349.93L1003.63 -348.868C1027.4 -343.733 1048.05 -341.21 1065.65 -341.189C1076.42 -341.303 1086.33 -342.271 1095.41 -344.052L1019.98 -380.295L1039.53 -433.478L1152.11 -373.147C1155.53 -376.449 1158.81 -379.967 1161.96 -383.705L1065.46 -439.411L1093.84 -488.566L1251.21 -397.721L1247.3 -390.953C1230.1 -361.158 1209.81 -337.059 1186.36 -318.862L1186.36 -318.867C1162.93 -300.38 1135.22 -288.683 1103.44 -283.675C1078.6 -279.761 1050.53 -280.344 1019.32 -285.25L1074.95 -253.135L1039.39 -191.55ZM1076.14 -442.271L1173.7 -385.953C1168.25 -378.635 1162.34 -371.985 1155.95 -366.011C1155.09 -365.202 1154.21 -364.412 1153.32 -363.632L1043.77 -422.341L1029.77 -384.26L1117.37 -342.172C1117.35 -342.166 1117.34 -342.158 1117.32 -342.151C1102.51 -336.496 1085.29 -333.572 1065.64 -333.373C1046.12 -333.397 1023.28 -336.373 997.109 -342.306L993.765 -298.079C1034.16 -289.093 1069.35 -286.72 1099.33 -290.965L1102.22 -291.394C1132.82 -296.216 1159.27 -307.432 1181.57 -325.036C1204.09 -342.513 1223.75 -365.788 1240.53 -394.861L1096.7 -477.89L1076.14 -442.271ZM1218.08 -128.931L1160.27 -162.309L1297.44 -399.88L1355.26 -366.503L1218.08 -128.931Z" fill="#EA8934"/>
<path d="M398.413 -32.6442L280.157 -100.911L317.504 -165.592L405.779 -114.632L426.378 -150.307L253.493 -250.111L300.276 -331.132L470.83 -232.674L491.236 -268.015L276.709 -391.858L188.92 -239.821L273.534 -190.975L236.186 -126.295L118.929 -193.986L97.9453 -157.646L377.429 3.69604L398.413 -32.6442ZM473.688 -221.986L303.135 -320.444L264.18 -252.98L437.065 -153.176L408.637 -103.944L320.363 -154.903L290.844 -103.781L409.1 -35.5133L380.288 14.3845L87.2583 -154.777L116.07 -204.674L233.328 -136.984L262.847 -188.106L178.233 -236.952L273.85 -402.547L501.923 -270.884L473.688 -221.986Z" fill="#EA8934"/>
<path d="M59.1575 -187.85L-109.972 -285.486L-74.4116 -347.071L-118.692 -372.633L-174.819 -275.429L38.5905 -152.231L59.1575 -187.85ZM205.903 -460.438L161.622 -486L32.2605 -261.965L76.5408 -236.403L205.903 -460.438ZM-99.2946 -288.346L69.8348 -190.711L41.4515 -141.555L-185.496 -272.568L-122.032 -382.479C-130.022 -383.791 -138.217 -385.376 -146.613 -387.244L-153.221 -388.714L-148.685 -448.729L-139.842 -446.726L-135.048 -445.663C-111.279 -440.528 -90.6299 -438.006 -73.0328 -437.985C-62.2615 -438.098 -52.3524 -439.067 -43.2766 -440.847L-118.699 -477.091L-99.1485 -530.274L13.4289 -469.943C16.8493 -473.245 20.1318 -476.763 23.2755 -480.501L-73.2211 -536.206L-44.8379 -585.362L112.528 -494.517L108.62 -487.749C91.4158 -457.954 71.1307 -433.855 47.6821 -415.658L47.6807 -415.663C24.2458 -397.176 -3.46362 -385.479 -35.246 -380.471C-60.0814 -376.557 -88.1523 -377.14 -119.365 -382.046L-63.7344 -349.931L-99.2946 -288.346ZM-62.5439 -539.067L35.0137 -482.749C29.5651 -475.431 23.6542 -468.781 17.2719 -462.807C16.4075 -461.998 15.5262 -461.208 14.6378 -460.428L-94.9148 -519.136L-108.913 -481.056L-21.313 -438.968C-21.3292 -438.962 -21.3443 -438.953 -21.3605 -438.947C-36.1676 -433.292 -53.3954 -430.367 -73.042 -430.169C-92.5606 -430.192 -115.405 -433.169 -141.573 -439.102L-144.917 -394.875C-104.521 -385.888 -69.3309 -383.516 -39.3481 -387.761L-36.4651 -388.189C-5.86243 -393.011 20.5881 -404.227 42.8871 -421.832C65.4081 -439.309 85.064 -462.584 101.851 -491.657L-41.9768 -574.686L-62.5439 -539.067ZM79.4019 -225.727L21.5833 -259.104L158.761 -496.676L216.58 -463.298L79.4019 -225.727Z" fill="#EA8934"/>
<path d="M995.7 312.159L877.443 243.892L914.791 179.212L1003.07 230.171L1023.66 194.496L850.78 94.6929L897.563 13.6713L1068.12 112.129L1088.52 76.7885L873.995 -47.0546L786.207 104.982L870.82 153.829L833.473 218.509L716.215 150.818L695.232 187.158L974.716 348.5L995.7 312.159ZM1070.98 122.818L900.421 24.36L861.467 91.8237L1034.35 191.628L1005.92 240.86L917.649 189.901L888.13 241.023L1006.39 309.29L977.575 359.188L684.545 190.027L713.357 140.129L830.614 207.82L860.133 156.698L775.52 107.851L871.137 -57.7432L1099.21 73.9196L1070.98 122.818Z" fill="#EA8934"/>
<path d="M656.444 156.953L487.315 59.3179L522.875 -2.26709L478.595 -27.8293L422.468 69.3746L635.877 192.573L656.444 156.953ZM803.189 -115.634L758.909 -141.197L629.547 82.8387L673.828 108.401L803.189 -115.634ZM497.992 56.4573L667.121 154.093L638.738 203.248L411.79 72.2351L475.255 -37.6758C467.264 -38.9868 459.07 -40.5728 450.674 -42.4407L444.066 -43.9108L448.602 -103.925L457.445 -101.922L462.239 -100.86C486.008 -95.7247 506.657 -93.2024 524.254 -93.1813C535.025 -93.2948 544.934 -94.2631 554.01 -96.0437L478.588 -132.287L498.138 -185.471L610.716 -125.139C614.136 -128.441 617.419 -131.959 620.562 -135.697L524.066 -191.403L552.449 -240.558L709.815 -149.714L705.907 -142.945C688.703 -113.15 668.417 -89.0514 644.969 -70.8544L644.967 -70.8596C621.533 -52.3719 593.823 -40.675 562.041 -35.667C537.205 -31.7537 509.134 -32.3365 477.922 -37.2419L533.552 -5.12744L497.992 56.4573ZM534.743 -194.263L632.3 -137.945C626.852 -130.627 620.941 -123.978 614.559 -118.003C613.694 -117.194 612.813 -116.405 611.925 -115.624L502.372 -174.333L488.374 -136.252L575.974 -94.1647C575.958 -94.1586 575.942 -94.1498 575.926 -94.1437C561.119 -88.4884 543.891 -85.5637 524.245 -85.3652C504.726 -85.3888 481.882 -88.3647 455.714 -94.2982L452.37 -50.0717C492.766 -41.0847 527.956 -38.712 557.939 -42.9569L560.822 -43.3857C591.424 -48.2078 617.875 -59.4238 640.174 -77.0287C662.695 -94.5056 682.351 -117.781 699.138 -146.853L555.31 -229.882L534.743 -194.263ZM676.689 119.077L618.87 85.6993L756.048 -151.873L813.867 -118.495L676.689 119.077Z" fill="#EA8934"/>
<path d="M1592.99 656.963L1474.73 588.696L1512.08 524.016L1600.35 574.975L1620.95 539.3L1448.07 439.496L1494.85 358.475L1665.4 456.933L1685.81 421.592L1471.28 297.749L1383.49 449.786L1468.11 498.632L1430.76 563.312L1313.5 495.621L1292.52 531.962L1572 693.303L1592.99 656.963ZM1668.26 467.621L1497.71 369.164L1458.75 436.627L1631.64 536.431L1603.21 585.664L1514.94 534.704L1485.42 585.827L1603.67 654.094L1574.86 703.992L1281.83 534.831L1310.64 484.933L1427.9 552.624L1457.42 501.501L1372.81 452.655L1468.42 287.061L1696.5 418.723L1668.26 467.621Z" fill="#EA8934"/>
<path d="M1253.73 501.757L1084.6 404.121L1120.16 342.537L1075.88 316.974L1019.75 414.178L1233.16 537.376L1253.73 501.757ZM1400.48 229.169L1356.2 203.607L1226.83 427.642L1271.11 453.205L1400.48 229.169ZM1095.28 401.261L1264.41 498.896L1236.02 548.052L1009.08 417.039L1072.54 307.128C1064.55 305.817 1056.36 304.231 1047.96 302.363L1041.35 300.893L1045.89 240.879L1054.73 242.881L1059.53 243.944C1083.29 249.079 1103.94 251.601 1121.54 251.622C1132.31 251.509 1142.22 250.541 1151.3 248.76L1075.87 212.517L1095.42 159.333L1208 219.664C1211.42 216.362 1214.71 212.844 1217.85 209.107L1121.35 153.401L1149.74 104.245L1307.1 195.09L1303.19 201.858C1285.99 231.653 1265.7 255.752 1242.26 273.949L1242.25 273.944C1218.82 292.432 1191.11 304.129 1159.33 309.137C1134.49 313.05 1106.42 312.467 1075.21 307.562L1130.84 339.676L1095.28 401.261ZM1132.03 150.54L1229.59 206.859C1224.14 214.176 1218.23 220.826 1211.85 226.801C1210.98 227.61 1210.1 228.399 1209.21 229.18L1099.66 170.471L1085.66 208.551L1173.26 250.639C1173.24 250.645 1173.23 250.654 1173.21 250.66C1158.41 256.315 1141.18 259.24 1121.53 259.438C1102.01 259.415 1079.17 256.439 1053 250.505L1049.66 294.732C1090.05 303.719 1125.24 306.092 1155.23 301.847L1158.11 301.418C1188.71 296.596 1215.16 285.38 1237.46 267.775C1259.98 250.298 1279.64 227.023 1296.42 197.951L1152.6 114.921L1132.03 150.54ZM1273.98 463.881L1216.16 430.503L1353.33 192.931L1411.15 226.309L1273.98 463.881Z" fill="#EA8934"/>
<path d="M454.304 560.167L336.048 491.9L373.396 427.22L461.67 478.179L482.27 442.504L309.384 342.701L356.168 261.679L526.721 360.137L547.128 324.796L332.6 200.953L244.812 352.99L329.425 401.836L292.078 466.517L174.82 398.826L153.837 435.166L433.321 596.507L454.304 560.167ZM529.58 370.826L359.026 272.368L320.071 339.832L492.957 439.635L464.529 488.868L376.254 437.908L346.735 489.031L464.991 557.298L436.18 607.196L143.15 438.035L171.962 388.137L289.219 455.828L318.738 404.705L234.124 355.859L329.742 190.265L557.815 321.927L529.58 370.826Z" fill="#EA8934"/>
<path d="M115.049 404.961L-54.0802 307.326L-18.52 245.741L-62.8004 220.179L-118.928 317.382L94.4821 440.58L115.049 404.961ZM261.794 132.373L217.514 106.811L88.152 330.847L132.432 356.409L261.794 132.373ZM-43.403 304.465L125.726 402.101L97.3431 451.256L-129.605 320.243L-66.1404 210.332C-74.1308 209.021 -82.3254 207.435 -90.7213 205.567L-97.3289 204.097L-92.7932 144.083L-83.9502 146.086L-79.1561 147.148C-55.3873 152.283 -34.7384 154.805 -17.1412 154.827C-6.36993 154.713 3.53918 153.745 12.615 151.964L-62.8076 115.721L-43.257 62.5371L69.3205 122.869C72.7409 119.566 76.0235 116.049 79.1671 112.311L-17.3295 56.6051L11.0537 7.44946L168.42 98.2943L164.512 105.063C147.307 134.858 127.022 158.956 103.574 177.153L103.572 177.148C80.1375 195.636 52.428 207.333 20.6456 212.341C-4.18988 216.254 -32.2607 215.671 -63.4734 210.766L-7.84283 242.88L-43.403 304.465ZM-6.65234 53.7445L90.9052 110.063C85.4567 117.381 79.5457 124.03 73.1635 130.005C72.299 130.814 71.4178 131.603 70.5294 132.384L-39.0233 73.675L-53.0216 111.755L34.5786 153.843C34.5624 153.849 34.5472 153.858 34.5311 153.864C19.7239 159.52 2.49615 162.444 -17.1505 162.643C-36.6691 162.619 -59.5135 159.643 -85.6816 153.709L-89.0253 197.936C-48.6293 206.923 -13.4393 209.296 16.5435 205.051L19.4265 204.622C50.0291 199.8 76.4797 188.584 98.7787 170.979C121.3 153.502 140.956 130.227 157.742 101.155L13.9147 18.1254L-6.65234 53.7445ZM135.293 367.085L77.4748 333.707L214.653 96.1353L272.471 129.513L135.293 367.085Z" fill="#EA8934"/>
<path d="M1051.59 904.971L933.335 836.703L970.682 772.023L1058.96 822.983L1079.56 787.308L906.671 687.504L953.454 606.483L1124.01 704.941L1144.41 669.6L929.887 545.757L842.098 697.794L926.712 746.64L889.365 811.32L772.107 743.629L751.124 779.969L1030.61 941.311L1051.59 904.971ZM1126.87 715.629L956.313 617.172L917.358 684.635L1090.24 784.439L1061.82 833.671L973.541 782.712L944.022 833.834L1062.28 902.102L1033.47 952L740.437 782.839L769.248 732.941L886.506 800.632L916.025 749.509L831.411 700.663L927.028 535.068L1155.1 666.731L1126.87 715.629Z" fill="#EA8934"/>
<path d="M712.336 749.765L543.207 652.129L578.767 590.544L534.486 564.982L478.359 662.186L691.769 785.384L712.336 749.765ZM859.081 477.177L814.801 451.615L685.439 675.65L729.719 701.212L859.081 477.177ZM553.884 649.269L723.013 746.904L694.63 796.06L467.682 665.047L531.146 555.136C523.156 553.825 514.961 552.239 506.565 550.371L499.958 548.901L504.494 488.887L513.337 490.889L518.13 491.952C541.899 497.087 562.548 499.609 580.145 499.63C590.917 499.517 600.826 498.548 609.902 496.768L534.479 460.524L554.03 407.341L666.607 467.672C670.028 464.37 673.31 460.852 676.454 457.115L579.957 401.409L608.34 352.253L765.706 443.098L761.798 449.866C744.594 479.661 724.309 503.76 700.86 521.957L700.859 521.952C677.424 540.439 649.715 552.136 617.932 557.145C593.097 561.058 565.026 560.475 533.813 555.569L589.444 587.684L553.884 649.269ZM590.634 398.548L688.192 454.867C682.744 462.184 676.833 468.834 670.45 474.808C669.586 475.618 668.705 476.407 667.816 477.187L558.263 418.479L544.265 456.559L631.865 498.647C631.849 498.653 631.834 498.662 631.818 498.668C617.011 504.323 599.783 507.248 580.136 507.446C560.618 507.423 537.773 504.447 511.605 498.513L508.261 542.74C548.657 551.727 583.847 554.099 613.83 549.854L616.713 549.426C647.316 544.604 673.766 533.388 696.065 515.783C718.586 498.306 738.242 475.031 755.029 445.958L611.201 362.929L590.634 398.548ZM732.58 711.888L674.761 678.511L811.94 440.939L869.758 474.317L732.58 711.888Z" fill="#EA8934"/>
<path d="M-87.0907 808.175L-205.347 739.908L-168 675.228L-79.7249 726.187L-59.1255 690.512L-232.011 590.708L-185.228 509.687L-14.6738 608.145L5.73242 572.804L-208.795 448.961L-296.584 600.998L-211.97 649.844L-249.317 714.524L-366.575 646.833L-387.558 683.174L-108.074 844.515L-87.0907 808.175ZM-11.8152 618.833L-182.369 520.375L-221.324 587.839L-48.4385 687.643L-76.8662 736.875L-165.141 685.916L-194.66 737.039L-76.4037 805.306L-105.216 855.204L-398.245 686.043L-369.433 636.145L-252.176 703.836L-222.657 652.713L-307.271 603.867L-211.654 438.272L16.4195 569.935L-11.8152 618.833Z" fill="#EA8934"/>
<path d="M-426.346 652.969L-595.475 555.333L-559.915 493.749L-604.196 468.186L-660.323 565.39L-446.913 688.588L-426.346 652.969ZM-279.601 380.381L-323.881 354.819L-453.243 578.854L-408.963 604.417L-279.601 380.381ZM-584.798 552.473L-415.669 650.109L-444.052 699.264L-671 568.251L-607.536 458.34C-615.526 457.029 -623.721 455.443 -632.116 453.575L-638.724 452.105L-634.188 392.091L-625.345 394.094L-620.551 395.156C-596.782 400.291 -576.134 402.813 -558.536 402.834C-547.765 402.721 -537.856 401.752 -528.78 399.972L-604.203 363.729L-584.652 310.545L-472.075 370.876C-468.654 367.574 -465.372 364.056 -462.228 360.319L-558.725 304.613L-530.341 255.457L-372.975 346.302L-376.884 353.07C-394.088 382.865 -414.373 406.964 -437.821 425.161L-437.823 425.156C-461.258 443.644 -488.967 455.34 -520.75 460.349C-545.585 464.262 -573.656 463.679 -604.869 458.774L-549.238 490.888L-584.798 552.473ZM-548.047 301.752L-450.49 358.071C-455.938 365.389 -461.849 372.038 -468.232 378.013C-469.096 378.822 -469.977 379.611 -470.866 380.391L-580.418 321.683L-594.417 359.763L-506.817 401.851C-506.833 401.857 -506.848 401.866 -506.864 401.872C-521.671 407.527 -538.899 410.452 -558.546 410.65C-578.064 410.627 -600.909 407.651 -627.077 401.717L-630.42 445.944C-590.024 454.931 -554.834 457.303 -524.852 453.059L-521.969 452.63C-491.366 447.808 -464.915 436.592 -442.616 418.987C-420.095 401.51 -400.44 378.235 -383.653 349.163L-527.48 266.133L-548.047 301.752ZM-406.102 615.093L-463.92 581.715L-326.742 344.143L-268.924 377.521L-406.102 615.093Z" fill="#EA8934"/>
<path d="M510.196 1152.98L391.94 1084.71L429.287 1020.03L517.562 1070.99L538.161 1035.32L365.276 935.512L412.059 854.49L582.613 952.948L603.019 917.608L388.492 793.765L300.703 945.802L385.317 994.648L347.969 1059.33L230.712 991.637L209.728 1027.98L489.213 1189.32L510.196 1152.98ZM585.472 963.637L414.918 865.179L375.963 932.643L548.848 1032.45L520.42 1081.68L432.146 1030.72L402.627 1081.84L520.883 1150.11L492.071 1200.01L199.041 1030.85L227.853 980.948L345.111 1048.64L374.63 997.517L290.016 948.671L385.633 783.076L613.706 914.739L585.472 963.637Z" fill="#EA8934"/>
<path d="M170.941 997.773L1.81134 900.137L37.3716 838.552L-6.90887 812.99L-63.036 910.194L150.374 1033.39L170.941 997.773ZM317.686 725.185L273.406 699.623L144.044 923.658L188.324 949.22L317.686 725.185ZM12.4886 897.277L181.618 994.912L153.235 1044.07L-73.7133 913.054L-10.2488 803.144C-18.2392 801.833 -26.4338 800.247 -34.8297 798.379L-41.4374 796.908L-36.9016 736.894L-28.0586 738.897L-23.2646 739.959C0.504272 745.094 21.1532 747.617 38.7503 747.638C49.5216 747.524 59.4307 746.556 68.5065 744.775L-6.91608 708.532L12.6346 655.349L125.212 715.68C128.632 712.378 131.915 708.86 135.059 705.123L38.562 649.417L66.9453 600.261L224.311 691.106L220.403 697.874C203.199 727.669 182.914 751.768 159.465 769.965L159.464 769.959C136.029 788.447 108.32 800.144 76.5372 805.152C51.7018 809.065 23.6309 808.483 -7.58185 803.577L48.0488 835.692L12.4886 897.277ZM49.2393 646.556L146.797 702.875C141.348 710.192 135.437 716.842 129.055 722.816C128.191 723.625 127.309 724.415 126.421 725.195L16.8683 666.486L2.87 704.567L90.4701 746.655C90.454 746.661 90.4388 746.669 90.4227 746.676C75.6156 752.331 58.3878 755.256 38.7411 755.454C19.2225 755.43 -3.62195 752.454 -29.79 746.521L-33.1337 790.748C7.26233 799.735 42.4522 802.107 72.435 797.862L75.318 797.433C105.921 792.611 132.371 781.396 154.67 763.791C177.191 746.314 196.847 723.039 213.634 693.966L69.8063 610.937L49.2393 646.556ZM191.185 959.896L133.366 926.519L270.544 688.947L328.363 722.324L191.185 959.896Z" fill="#EA8934"/>
<path d="M1107.48 1497.78L989.226 1429.51L1026.57 1364.83L1114.85 1415.79L1135.45 1380.12L962.563 1280.32L1009.35 1199.29L1179.9 1297.75L1200.31 1262.41L985.778 1138.57L897.99 1290.61L982.604 1339.45L945.256 1404.13L827.999 1336.44L807.015 1372.78L1086.5 1534.12L1107.48 1497.78ZM1182.76 1308.44L1012.2 1209.98L973.25 1277.45L1146.14 1377.25L1117.71 1426.48L1029.43 1375.52L999.913 1426.65L1118.17 1494.91L1089.36 1544.81L796.328 1375.65L825.14 1325.75L942.397 1393.44L971.917 1342.32L887.303 1293.47L982.92 1127.88L1210.99 1259.54L1182.76 1308.44Z" fill="#EA8934"/>
<path d="M768.227 1342.58L599.098 1244.94L634.658 1183.36L590.378 1157.79L534.251 1255L747.66 1378.2L768.227 1342.58ZM914.973 1069.99L870.692 1044.43L741.33 1268.46L785.611 1294.02L914.973 1069.99ZM609.775 1242.08L778.905 1339.72L750.521 1388.87L523.573 1257.86L587.038 1147.95C579.048 1146.64 570.853 1145.05 562.457 1143.18L555.849 1141.71L560.385 1081.7L569.228 1083.7L574.022 1084.76C597.791 1089.9 618.44 1092.42 636.037 1092.44C646.808 1092.33 656.718 1091.36 665.793 1089.58L590.371 1053.34L609.921 1000.15L722.499 1060.48C725.919 1057.18 729.202 1053.66 732.345 1049.93L635.849 994.22L664.232 945.065L821.598 1035.91L817.69 1042.68C800.486 1072.47 780.201 1096.57 756.752 1114.77L756.75 1114.76C733.316 1133.25 705.606 1144.95 673.824 1149.96C648.989 1153.87 620.918 1153.29 589.705 1148.38L645.336 1180.5L609.775 1242.08ZM646.526 991.36L744.083 1047.68C738.635 1055 732.724 1061.65 726.342 1067.62C725.477 1068.43 724.596 1069.22 723.708 1070L614.155 1011.29L600.157 1049.37L687.757 1091.46C687.741 1091.46 687.725 1091.47 687.709 1091.48C672.902 1097.13 655.674 1100.06 636.028 1100.26C616.509 1100.23 593.665 1097.26 567.497 1091.32L564.153 1135.55C604.549 1144.54 639.739 1146.91 669.722 1142.67L672.605 1142.24C703.207 1137.42 729.658 1126.2 751.957 1108.59C774.478 1091.12 794.134 1067.84 810.921 1038.77L667.093 955.74L646.526 991.36ZM788.472 1304.7L730.653 1271.32L867.831 1033.75L925.65 1067.13L788.472 1304.7Z" fill="#EA8934"/>
<path d="M-31.1991 1400.99L-149.455 1332.72L-112.108 1268.04L-23.8333 1319L-3.23401 1283.32L-176.119 1183.52L-129.336 1102.5L41.2178 1200.96L61.624 1165.62L-152.903 1041.77L-240.692 1193.81L-156.078 1242.66L-193.426 1307.34L-310.683 1239.64L-331.667 1275.99L-52.1826 1437.33L-31.1991 1400.99ZM44.0764 1211.64L-126.477 1113.19L-165.432 1180.65L7.45306 1280.45L-20.9747 1329.69L-109.249 1278.73L-138.768 1329.85L-20.5121 1398.12L-49.324 1448.02L-342.354 1278.85L-313.542 1228.96L-196.284 1296.65L-166.765 1245.52L-251.379 1196.68L-155.762 1031.08L72.311 1162.75L44.0764 1211.64Z" fill="#EA8934"/>
<path d="M-370.454 1245.78L-539.584 1148.14L-504.024 1086.56L-548.304 1061L-604.431 1158.2L-391.022 1281.4L-370.454 1245.78ZM-223.709 973.193L-267.99 947.631L-397.352 1171.67L-353.071 1197.23L-223.709 973.193ZM-528.907 1145.28L-359.777 1242.92L-388.16 1292.08L-615.108 1161.06L-551.644 1051.15C-559.634 1049.84 -567.829 1048.25 -576.225 1046.39L-582.833 1044.92L-578.297 984.902L-569.454 986.905L-564.66 987.967C-540.891 993.102 -520.242 995.625 -502.645 995.646C-491.874 995.532 -481.964 994.564 -472.889 992.783L-548.311 956.54L-528.761 903.356L-416.183 963.688C-412.763 960.385 -409.48 956.868 -406.337 953.13L-502.833 897.424L-474.45 848.269L-317.084 939.114L-320.992 945.882C-338.196 975.677 -358.481 999.776 -381.93 1017.97L-381.931 1017.97C-405.366 1036.46 -433.076 1048.15 -464.858 1053.16C-489.693 1057.07 -517.764 1056.49 -548.977 1051.58L-493.346 1083.7L-528.907 1145.28ZM-492.156 894.564L-394.598 950.882C-400.047 958.2 -405.958 964.849 -412.34 970.824C-413.205 971.633 -414.086 972.422 -414.974 973.203L-524.527 914.494L-538.525 952.574L-450.925 994.662C-450.941 994.668 -450.956 994.677 -450.972 994.684C-465.78 1000.34 -483.007 1003.26 -502.654 1003.46C-522.173 1003.44 -545.017 1000.46 -571.185 994.529L-574.529 1038.76C-534.133 1047.74 -498.943 1050.11 -468.96 1045.87L-466.077 1045.44C-435.474 1040.62 -409.024 1029.4 -386.725 1011.8C-364.204 994.322 -344.548 971.046 -327.761 941.974L-471.589 858.945L-492.156 894.564ZM-350.21 1207.9L-408.029 1174.53L-270.851 936.955L-213.032 970.332L-350.21 1207.9Z" fill="#EA8934"/>
<path d="M566.088 1745.79L447.831 1677.52L485.179 1612.84L573.453 1663.8L594.053 1628.13L421.168 1528.32L467.951 1447.3L638.505 1545.76L658.911 1510.42L444.383 1386.58L356.595 1538.61L441.208 1587.46L403.861 1652.14L286.603 1584.45L265.62 1620.79L545.104 1782.13L566.088 1745.79ZM641.363 1556.45L470.809 1457.99L431.855 1525.45L604.74 1625.26L576.312 1674.49L488.037 1623.53L458.518 1674.65L576.775 1742.92L547.963 1792.82L254.933 1623.66L283.745 1573.76L401.002 1641.45L430.521 1590.33L345.908 1541.48L441.525 1375.89L669.598 1507.55L641.363 1556.45Z" fill="#EA8934"/>
<path d="M226.832 1590.58L57.7029 1492.95L93.2631 1431.36L48.9828 1405.8L-7.14447 1503.01L206.265 1626.2L226.832 1590.58ZM373.578 1318L329.297 1292.43L199.935 1516.47L244.216 1542.03L373.578 1318ZM68.3802 1490.09L237.51 1587.72L209.126 1636.88L-17.8217 1505.87L45.6427 1395.95C37.6523 1394.64 29.4578 1393.06 21.0619 1391.19L14.4542 1389.72L18.99 1329.71L27.8329 1331.71L32.627 1332.77C56.3958 1337.91 77.0447 1340.43 94.6419 1340.45C105.413 1340.34 115.322 1339.37 124.398 1337.59L48.9756 1301.34L68.5262 1248.16L181.104 1308.49C184.524 1305.19 187.807 1301.67 190.95 1297.93L94.4536 1242.23L122.837 1193.07L280.203 1283.92L276.295 1290.69C259.091 1320.48 238.805 1344.58 215.357 1362.78L215.355 1362.77C191.921 1381.26 164.211 1392.96 132.429 1397.96C107.593 1401.88 79.5225 1401.29 48.3098 1396.39L103.94 1428.5L68.3802 1490.09ZM105.131 1239.37L202.688 1295.69C197.24 1303 191.329 1309.65 184.947 1315.63C184.082 1316.44 183.201 1317.23 182.312 1318.01L72.7599 1259.3L58.7615 1297.38L146.362 1339.47C146.346 1339.47 146.33 1339.48 146.314 1339.49C131.507 1345.14 114.279 1348.07 94.6327 1348.27C75.1141 1348.24 52.2697 1345.27 26.1015 1339.33L22.7579 1383.56C63.1539 1392.55 98.3438 1394.92 128.327 1390.67L131.21 1390.24C161.812 1385.42 188.263 1374.21 210.562 1356.6C233.083 1339.13 252.739 1315.85 269.526 1286.78L125.698 1203.75L105.131 1239.37ZM247.077 1552.71L189.258 1519.33L326.436 1281.76L384.255 1315.14L247.077 1552.71Z" fill="#EA8934"/>
</g>
</svg>
